<?xml version="1.0" encoding="UTF-8" standalone="no"?>
<!DOCTYPE svg PUBLIC "-//W3C//DTD SVG 1.1//EN" "http://www.w3.org/Graphics/SVG/1.1/DTD/svg11.dtd">
<svg width="100%" height="100%" viewBox="0 0 5253 5253" version="1.1" xmlns="http://www.w3.org/2000/svg" xmlns:xlink="http://www.w3.org/1999/xlink" xml:space="preserve" xmlns:serif="http://www.serif.com/" style="fill-rule:evenodd;clip-rule:evenodd;stroke-linejoin:round;stroke-miterlimit:2;">
    <rect id="Artboard1" x="0" y="0" width="5253" height="5253" style="fill:none;"/>
    <g id="oil-pressure-gauge-group">
        <g id="oil-pressure-gauge-body">
            <path d="M5042.57,2626.5C5042.57,3960.86 3960.85,5042.57 2626.51,5042.57C1292.15,5042.57 210.433,3960.86 210.433,2626.5C210.433,1292.14 1292.15,210.425 2626.51,210.425C3960.85,210.425 5042.57,1292.14 5042.57,2626.5" style="fill:rgb(8,6,6);fill-rule:nonzero;"/>
            <path d="M1013.41,1013.42C742.32,1284.52 539.124,1623.52 431.57,2002.73C375.336,2201 345.253,2410.22 345.253,2626.5C345.253,3256.41 600.595,3826.75 1013.41,4239.59C1426.24,4652.42 1996.55,4907.74 2626.51,4907.74C2850.5,4907.74 3066.97,4875.44 3271.47,4815.27C3642.12,4706.25 3973.56,4505.6 4239.6,4239.59C4652.41,3826.75 4907.74,3256.41 4907.74,2626.5C4907.74,2410.22 4877.66,2201 4821.43,2002.73C4713.87,1623.52 4510.68,1284.52 4239.6,1013.42C3973.56,747.361 3642.12,546.749 3271.47,437.69C3066.97,377.528 2850.5,345.224 2626.51,345.224C1996.55,345.224 1426.24,600.586 1013.41,1013.42Z" style="fill:white;fill-rule:nonzero;"/>
            <path d="M3032,4433.02C3019.11,4385.6 3046.5,4336.52 3093.21,4323.45C3139.9,4310.38 3188.2,4338.2 3201.1,4385.6C3213.98,4433.02 3186.59,4482.05 3139.88,4495.16C3093.19,4508.24 3044.88,4480.4 3032,4433.02" style="fill:rgb(8,6,6);fill-rule:nonzero;"/>
            <path d="M4171.15,3549.61C4158.28,3502.22 4185.67,3453.14 4232.36,3440.07C4279.07,3427 4327.37,3454.8 4340.27,3502.22C4353.16,3549.64 4325.74,3598.68 4279.06,3611.79C4232.36,3624.86 4184.04,3597.03 4171.15,3549.61" style="fill:rgb(8,6,6);fill-rule:nonzero;"/>
            <path d="M742.847,3362.69C729.959,3315.27 757.368,3266.23 804.063,3253.16C850.772,3240.05 899.072,3267.88 911.963,3315.31C924.851,3362.69 897.443,3411.76 850.751,3424.84C804.043,3437.95 755.738,3410.12 742.847,3362.69" style="fill:rgb(8,6,6);fill-rule:nonzero;"/>
            <path d="M1596.08,4271.37C1583.19,4223.95 1610.61,4174.91 1657.3,4161.84C1704.01,4148.73 1752.31,4176.56 1765.2,4223.99C1778.09,4271.41 1750.68,4320.44 1703.99,4333.52C1657.28,4346.63 1608.97,4318.79 1596.08,4271.37" style="fill:rgb(8,6,6);fill-rule:nonzero;"/>
            <path d="M4428.08,2481.88L4693.42,2491.84C4703.61,2492.14 4712.19,2484.15 4712.56,2473.79C4712.94,2463.46 4704.98,2454.75 4694.8,2454.38L4429.45,2444.42C4427.51,2444.35 4425.63,2444.57 4423.86,2445.08C4416.29,2447.2 4410.62,2454.05 4410.32,2462.47C4409.94,2472.8 4417.9,2481.52 4428.08,2481.88" style="fill:rgb(8,6,6);fill-rule:nonzero;"/>
            <path d="M4417.74,2709.81L4675.16,2744.31C4685.18,2745.74 4694.55,2738.45 4695.9,2728.2C4697.21,2717.94 4690.11,2708.53 4680,2707.18L4422.55,2672.68C4420.03,2672.35 4417.55,2672.53 4415.23,2673.19C4408.31,2675.13 4402.83,2681.1 4401.82,2688.79C4400.51,2699.08 4407.61,2708.49 4417.74,2709.81" style="fill:rgb(8,6,6);fill-rule:nonzero;"/>
            <path d="M4380.36,2931.77L4629.9,2990.74C4639.83,2993.08 4649.75,2986.78 4652.07,2976.71C4654.39,2966.6 4648.21,2956.53 4638.27,2954.18L4388.74,2895.23C4385.64,2894.49 4382.52,2894.6 4379.65,2895.41C4373.35,2897.17 4368.15,2902.33 4366.56,2909.22C4364.25,2919.32 4370.44,2929.43 4380.36,2931.77" style="fill:rgb(8,6,6);fill-rule:nonzero;"/>
            <path d="M4557.82,3228.62C4567.41,3231.96 4577.99,3226.72 4581.25,3216.9C4584.53,3207.13 4579.39,3196.47 4569.72,3193.14L4328.11,3109.68C4324.48,3108.43 4320.71,3108.4 4317.27,3109.35C4311.57,3110.96 4306.72,3115.28 4304.67,3121.4C4301.39,3131.21 4306.54,3141.83 4316.21,3145.16L4557.82,3228.62Z" style="fill:rgb(8,6,6);fill-rule:nonzero;"/>
            <path d="M4225.46,3347.82L4459.16,3455.75C4468.48,3460.07 4479.37,3455.82 4483.62,3446.44C4487.83,3437 4483.75,3425.9 4474.44,3421.62L4240.75,3313.69C4236.65,3311.79 4232.21,3311.57 4228.21,3312.66C4223.12,3314.09 4218.66,3317.76 4216.3,3322.99C4212.09,3332.44 4216.18,3343.5 4225.46,3347.82" style="fill:rgb(8,6,6);fill-rule:nonzero;"/>
            <path d="M4036.04,3700.71L4232.29,3882.27C4239.87,3889.2 4251.52,3888.72 4258.38,3881.06C4265.25,3873.41 4264.72,3861.55 4257.17,3854.59L4060.9,3673.02C4059.47,3671.7 4057.88,3670.61 4056.22,3669.84C4049.09,3666.5 4040.39,3668.04 4034.83,3674.23C4027.95,3681.88 4028.49,3693.75 4036.04,3700.71" style="fill:rgb(8,6,6);fill-rule:nonzero;"/>
            <path d="M3883.14,3867.99L4057.77,4063.11C4064.53,4070.73 4076.32,4071.35 4083.85,4064.39C4091.39,4057.39 4091.96,4045.57 4085.09,4037.91L3910.46,3842.8C3908.76,3840.86 3906.74,3839.39 3904.55,3838.37C3898.03,3835.32 3890.05,3836.28 3884.39,3841.48C3876.85,3848.47 3876.28,3860.34 3883.14,3867.99" style="fill:rgb(8,6,6);fill-rule:nonzero;"/>
            <path d="M3713.48,4012.94L3866.52,4221.57C3872.6,4229.88 3884.17,4231.57 3892.35,4225.41C3900.54,4219.22 3902.22,4207.47 3896.12,4199.15L3743.11,3990.53C3741.2,3987.93 3738.75,3985.98 3736.06,3984.7C3730.11,3981.92 3722.87,3982.47 3717.27,3986.68C3709.08,3992.87 3707.38,4004.63 3713.48,4012.94" style="fill:rgb(8,6,6);fill-rule:nonzero;"/>
            <path d="M3660.16,4355.93C3665.38,4364.8 3676.76,4367.72 3685.5,4362.37C3694.25,4357.03 3697.07,4345.53 3691.82,4336.67L3560.42,4114.52C3558.44,4111.19 3555.59,4108.7 3552.35,4107.16C3546.98,4104.64 3540.53,4104.78 3535.08,4108.11C3526.33,4113.43 3523.51,4124.92 3528.76,4133.82L3660.16,4355.93Z" style="fill:rgb(8,6,6);fill-rule:nonzero;"/>
            <path d="M3330.57,4229.07L3440.38,4464.69C3444.75,4474.11 3455.78,4477.99 3464.99,4473.59C3474.2,4469.16 3478.14,4458.03 3473.77,4448.66L3363.99,4213.04C3362.04,4208.9 3358.82,4205.79 3355.03,4204.03C3350.23,4201.79 3344.52,4201.64 3339.36,4204.1C3330.17,4208.53 3326.23,4219.66 3330.57,4229.07" style="fill:rgb(8,6,6);fill-rule:nonzero;"/>
            <path d="M2871.32,4386.22L2892.43,4654.94C2893.33,4665.27 2902.16,4673 2912.32,4672.15C2922.48,4671.35 2930.06,4662.31 2929.25,4651.98L2908.12,4383.25C2907.96,4381.27 2907.52,4379.4 2906.82,4377.68C2903.88,4370.29 2896.5,4365.38 2888.24,4366.04C2878.1,4366.85 2870.49,4375.89 2871.32,4386.22" style="fill:rgb(8,6,6);fill-rule:nonzero;"/>
            <path d="M2647.13,4402.29L2643.34,4665.93C2643.14,4676.18 2651.32,4684.79 2661.5,4684.94C2671.72,4685.08 2680.11,4676.84 2680.23,4666.48L2684.02,4402.84C2684.08,4400.28 2683.59,4397.79 2682.66,4395.52C2679.98,4388.78 2673.49,4383.94 2665.86,4383.84C2655.64,4383.69 2647.26,4391.96 2647.13,4402.29" style="fill:rgb(8,6,6);fill-rule:nonzero;"/>
            <path d="M2425.68,4390.47L2397.04,4648.94C2395.91,4659.22 2403.19,4668.53 2413.32,4669.7C2423.48,4670.84 2432.62,4663.44 2433.76,4653.15L2462.39,4394.64C2462.74,4391.42 2462.28,4388.3 2461.16,4385.52C2458.69,4379.33 2453.05,4374.72 2446.11,4373.91C2435.97,4372.74 2426.82,4380.17 2425.68,4390.47" style="fill:rgb(8,6,6);fill-rule:nonzero;"/>
            <path d="M2155.95,4603.93C2153.78,4614 2160.14,4624.07 2170.12,4626.19C2180.1,4628.39 2189.89,4621.94 2192.04,4611.8L2245.56,4358.46C2246.36,4354.65 2245.96,4350.84 2244.62,4347.47C2242.39,4341.9 2237.59,4337.54 2231.39,4336.19C2221.41,4334.03 2211.59,4340.44 2209.47,4350.59L2155.95,4603.93Z" style="fill:rgb(8,6,6);fill-rule:nonzero;"/>
            <path d="M2000.65,4282.65L1922.27,4530.87C1919.15,4540.79 1924.55,4551.27 1934.24,4554.45C1943.94,4557.6 1954.33,4552.22 1957.46,4542.33L2035.85,4294.11C2037.2,4289.76 2036.93,4285.25 2035.37,4281.33C2033.37,4276.35 2029.29,4272.29 2023.87,4270.53C2014.17,4267.38 2003.78,4272.77 2000.65,4282.65" style="fill:rgb(8,6,6);fill-rule:nonzero;"/>
            <path d="M1568.89,4095L1404.9,4307.01C1398.68,4315.21 1400,4326.96 1408.03,4333.34C1416.04,4339.74 1427.65,4338.32 1433.92,4330.19L1597.93,4118.15C1599.12,4116.61 1600.06,4114.93 1600.7,4113.17C1603.46,4105.74 1601.32,4097.02 1594.8,4091.82C1586.82,4085.45 1575.19,4086.84 1568.89,4095" style="fill:rgb(8,6,6);fill-rule:nonzero;"/>
            <path d="M1393.4,3952.44L1214.53,4143.53C1207.51,4150.93 1207.79,4162.9 1215.17,4170.04C1222.58,4177.15 1234.27,4176.86 1241.28,4169.35L1420.16,3978.22C1421.91,3976.39 1423.21,3974.23 1424.06,3971.92C1426.6,3965.11 1425.04,3957.09 1419.52,3951.74C1412.1,3944.6 1400.42,3944.89 1393.4,3952.44" style="fill:rgb(8,6,6);fill-rule:nonzero;"/>
            <path d="M1238.6,3791.24L1044.88,3961.45C1037.17,3968.22 1036.33,3980.05 1042.99,3987.89C1049.68,3995.73 1061.34,3996.6 1069.05,3989.79L1262.8,3819.58C1265.19,3817.45 1266.93,3814.85 1267.98,3812.03C1270.28,3805.81 1269.24,3798.52 1264.68,3793.14C1257.98,3785.3 1246.31,3784.46 1238.6,3791.24" style="fill:rgb(8,6,6);fill-rule:nonzero;"/>
            <path d="M897.793,3762.34C889.46,3768.24 887.426,3780.03 893.322,3788.45C899.201,3796.91 910.701,3798.96 919.051,3792.99L1127.61,3643.65C1130.76,3641.42 1133.01,3638.34 1134.25,3634.97C1136.34,3629.33 1135.76,3622.82 1132.07,3617.54C1126.2,3609.08 1114.68,3607.07 1106.35,3613.04L897.793,3762.34Z" style="fill:rgb(8,6,6);fill-rule:nonzero;"/>
            <path d="M998.296,3419.31L774.871,3547.74C765.971,3552.86 762.934,3564.29 767.913,3573.3C772.95,3582.31 784.175,3585.46 793.075,3580.37L1016.5,3451.94C1020.42,3449.7 1023.22,3446.19 1024.67,3442.24C1026.53,3437.21 1026.26,3431.43 1023.46,3426.38C1018.42,3417.37 1007.2,3414.22 998.296,3419.31" style="fill:rgb(8,6,6);fill-rule:nonzero;"/>
            <path d="M2710.24,646.8C2710.24,695.979 2670.36,735.862 2621.18,735.862C2572,735.862 2532.12,695.979 2532.12,646.8C2532.12,597.62 2572,557.737 2621.18,557.737C2670.36,557.737 2710.24,597.62 2710.24,646.8" style="fill:rgb(8,6,6);fill-rule:nonzero;"/>
            <path d="M1360.24,1190.55C1360.24,1239.73 1320.36,1279.61 1271.18,1279.61C1222,1279.61 1182.12,1239.73 1182.12,1190.55C1182.12,1141.37 1222,1101.49 1271.18,1101.49C1320.36,1101.49 1360.24,1141.37 1360.24,1190.55" style="fill:rgb(8,6,6);fill-rule:nonzero;"/>
            <path d="M728.383,2296.98C728.383,2346.17 688.499,2386.05 639.32,2386.05C590.12,2386.05 550.258,2346.17 550.258,2296.98C550.258,2247.8 590.12,2207.92 639.32,2207.92C688.499,2207.92 728.383,2247.8 728.383,2296.98" style="fill:rgb(8,6,6);fill-rule:nonzero;"/>
            <path d="M4665.88,2296.98C4665.88,2346.17 4626,2386.05 4576.82,2386.05C4527.62,2386.05 4487.76,2346.17 4487.76,2296.98C4487.76,2247.8 4527.62,2207.92 4576.82,2207.92C4626,2207.92 4665.88,2247.8 4665.88,2296.98" style="fill:rgb(8,6,6);fill-rule:nonzero;"/>
            <path d="M4072.6,1190.55C4072.6,1239.73 4032.72,1279.61 3983.54,1279.61C3934.34,1279.61 3894.48,1239.73 3894.48,1190.55C3894.48,1141.37 3934.34,1101.49 3983.54,1101.49C4032.72,1101.49 4072.6,1141.37 4072.6,1190.55" style="fill:rgb(8,6,6);fill-rule:nonzero;"/>
            <path d="M824.66,2150.39L567.618,2069.09C557.727,2066.05 547.198,2071.43 544.085,2081.32C540.956,2091.17 546.431,2101.72 556.298,2104.83L813.343,2186.13C815.231,2186.72 817.135,2187.01 819.002,2187.01C826.968,2187.01 834.348,2181.92 836.873,2173.9C840.006,2164.05 834.531,2153.5 824.66,2150.39" style="fill:rgb(8,6,6);fill-rule:nonzero;"/>
            <path d="M895.449,1933.44L652.665,1830.65C643.24,1826.59 632.124,1831.05 628.095,1840.57C624.07,1850.13 628.515,1861.12 638.057,1865.15L880.836,1967.94C883.215,1968.97 885.686,1969.44 888.14,1969.44C895.432,1969.44 902.386,1965.16 905.407,1958.02C909.436,1948.46 904.99,1937.47 895.449,1933.44" style="fill:rgb(8,6,6);fill-rule:nonzero;"/>
            <path d="M991.066,1729.61L762.529,1605.35C753.445,1600.41 742.058,1603.78 737.1,1612.86C732.154,1621.98 735.52,1633.37 744.625,1638.32L973.158,1762.57C975.995,1764.11 979.07,1764.85 982.091,1764.85C988.741,1764.85 995.183,1761.29 998.591,1755.06C1003.53,1745.94 1000.16,1734.55 991.066,1729.61" style="fill:rgb(8,6,6);fill-rule:nonzero;"/>
            <path d="M896.401,1395.52C887.885,1389.69 876.147,1391.89 870.343,1400.46C864.522,1409.03 866.735,1420.68 875.31,1426.5L1089.56,1572.21C1092.78,1574.41 1096.46,1575.47 1100.09,1575.47C1106.09,1575.47 1111.99,1572.62 1115.61,1567.27C1121.43,1558.7 1119.22,1547.06 1110.65,1541.23L896.401,1395.52Z" style="fill:rgb(8,6,6);fill-rule:nonzero;"/>
            <path d="M1253.4,1370.4L1053.39,1203.22C1045.41,1196.56 1033.62,1197.69 1026.97,1205.6C1020.34,1213.55 1021.39,1225.34 1029.34,1232L1229.34,1399.18C1232.86,1402.11 1237.12,1403.54 1241.35,1403.54C1246.72,1403.54 1252.04,1401.23 1255.76,1396.8C1262.39,1388.85 1261.35,1377.06 1253.4,1370.4" style="fill:rgb(8,6,6);fill-rule:nonzero;"/>
            <path d="M1532.69,1081.42L1388.94,853.342C1383.35,844.663 1371.84,841.955 1363.06,847.517C1354.31,853.013 1351.69,864.584 1357.2,873.338L1500.98,1101.41C1502.04,1103.06 1503.3,1104.53 1504.73,1105.74C1510.81,1110.86 1519.73,1111.74 1526.83,1107.27C1535.59,1101.74 1538.22,1090.17 1532.69,1081.42" style="fill:rgb(8,6,6);fill-rule:nonzero;"/>
            <path d="M1726.84,961.485L1607.84,726.23C1603.26,717.039 1591.9,713.268 1582.68,717.918C1573.43,722.643 1569.74,733.885 1574.42,743.114L1693.4,978.368C1694.56,980.71 1696.15,982.655 1698.02,984.264C1703.59,988.951 1711.66,990.193 1718.58,986.68C1727.83,981.993 1731.53,970.714 1726.84,961.485" style="fill:rgb(8,6,6);fill-rule:nonzero;"/>
            <path d="M1931.48,867.589L1837.21,625.16C1833.48,615.489 1822.6,610.73 1812.95,614.464C1803.29,618.235 1798.51,629.072 1802.26,638.743L1896.52,881.176C1897.69,884.218 1899.56,886.739 1901.87,888.68C1906.94,893.001 1914.15,894.43 1920.79,891.868C1930.45,888.13 1935.23,877.255 1931.48,867.589" style="fill:rgb(8,6,6);fill-rule:nonzero;"/>
            <path d="M2074.94,551.366C2072.19,541.408 2061.81,535.508 2051.85,538.329C2041.87,541.108 2036.03,551.404 2038.81,561.4L2108.32,811.008C2109.37,814.783 2111.49,817.97 2114.25,820.312C2118.83,824.195 2125.18,825.804 2131.41,824.045C2141.39,821.262 2147.21,810.97 2144.43,800.975L2074.94,551.366Z" style="fill:rgb(8,6,6);fill-rule:nonzero;"/>
            <path d="M2363.74,762.705L2318.98,505.922C2317.19,495.663 2307.45,488.926 2297.26,490.684C2287.06,492.443 2280.26,502.147 2282.01,512.363L2326.78,769.151C2327.57,773.655 2329.91,777.501 2333.14,780.247C2337.24,783.688 2342.79,785.372 2348.5,784.384C2358.68,782.63 2365.51,772.926 2363.74,762.705" style="fill:rgb(8,6,6);fill-rule:nonzero;"/>
            <path d="M2855.04,735.315L2905.89,470.544C2907.76,460.361 2901.18,450.548 2891,448.607C2880.84,446.628 2871.01,453.294 2869.07,463.473L2818.24,728.244C2817.87,730.186 2817.8,732.09 2818.02,733.957C2818.95,741.869 2824.87,748.607 2833.12,750.182C2843.27,752.123 2853.1,745.494 2855.04,735.315" style="fill:rgb(8,6,6);fill-rule:nonzero;"/>
            <path d="M3078.76,780.393L3152.61,527.268C3155.54,517.456 3149.81,506.906 3139.88,504.052C3129.92,501.156 3119.52,506.835 3116.65,516.793L3042.8,769.881C3042.05,772.372 3041.87,774.86 3042.16,777.318C3043,784.535 3048.07,790.943 3055.51,793.135C3065.47,796.031 3075.87,790.314 3078.76,780.393" style="fill:rgb(8,6,6);fill-rule:nonzero;"/>
            <path d="M3292.34,851.621L3389.14,610.175C3393.01,600.583 3388.34,589.671 3378.72,585.788C3369.09,581.942 3358.18,586.629 3354.34,596.229L3257.51,837.667C3256.32,840.671 3255.94,843.821 3256.3,846.825C3257.07,853.417 3261.35,859.383 3267.93,862.058C3277.56,865.904 3288.47,861.254 3292.34,851.621" style="fill:rgb(8,6,6);fill-rule:nonzero;"/>
            <path d="M3613.13,718.725C3617.93,709.604 3614.38,698.179 3605.19,693.42C3596.01,688.62 3584.7,692.208 3579.92,701.366L3460.12,931.125C3458.3,934.604 3457.68,938.379 3458.1,941.966C3458.81,947.937 3462.33,953.462 3468.06,956.429C3477.26,961.229 3488.55,957.675 3493.35,948.483L3613.13,718.725Z" style="fill:rgb(8,6,6);fill-rule:nonzero;"/>
            <path d="M3679.64,1070.4L3822.41,852.279C3828.08,843.567 3825.6,831.992 3816.95,826.317C3808.29,820.638 3796.7,823.058 3791,831.733L3648.24,1049.82C3645.75,1053.66 3644.82,1058.05 3645.31,1062.27C3645.93,1067.61 3648.84,1072.63 3653.67,1075.78C3662.35,1081.45 3673.92,1079.04 3679.64,1070.4" style="fill:rgb(8,6,6);fill-rule:nonzero;"/>
            <path d="M4052.26,1367.91L4269.2,1207.84C4277.46,1201.65 4279.31,1189.96 4273.14,1181.62C4267.01,1173.3 4255.27,1171.51 4246.94,1177.66L4030.01,1337.73C4028.44,1338.93 4027.06,1340.29 4025.96,1341.79C4021.3,1348.24 4021.08,1357.21 4026.08,1363.95C4032.19,1372.3 4043.95,1374.06 4052.26,1367.91" style="fill:rgb(8,6,6);fill-rule:nonzero;"/>
            <path d="M4186.09,1552.77L4412.01,1416.87C4420.85,1411.63 4423.78,1400.02 4418.43,1391.16C4413.07,1382.26 4401.57,1379.4 4392.7,1384.75L4166.79,1520.65C4164.56,1521.97 4162.71,1523.69 4161.28,1525.67C4156.98,1531.57 4156.36,1539.73 4160.36,1546.36C4165.71,1555.26 4177.21,1558.12 4186.09,1552.77" style="fill:rgb(8,6,6);fill-rule:nonzero;"/>
            <path d="M4294.71,1749.98L4529.62,1638.25C4538.95,1633.78 4542.93,1622.61 4538.49,1613.23C4534.03,1603.89 4522.84,1599.9 4513.48,1604.37L4278.58,1716.1C4275.67,1717.49 4273.27,1719.54 4271.49,1722C4267.57,1727.38 4266.66,1734.67 4269.69,1741.08C4274.17,1750.45 4285.35,1754.44 4294.71,1749.98" style="fill:rgb(8,6,6);fill-rule:nonzero;"/>
            <path d="M4620.58,1869.91C4630.31,1866.43 4635.43,1855.66 4631.9,1845.92C4628.4,1836.18 4617.69,1831.12 4607.93,1834.64L4364.07,1922.2C4360.41,1923.52 4357.39,1925.87 4355.24,1928.8C4351.71,1933.66 4350.56,1940.11 4352.75,1946.19C4356.25,1955.93 4366.98,1960.98 4376.72,1957.47L4620.58,1869.91Z" style="fill:rgb(8,6,6);fill-rule:nonzero;"/>
            <path d="M4430.94,2173.43L4683.77,2109.96C4693.86,2107.43 4699.87,2097.21 4697.38,2087.22C4694.85,2077.18 4684.7,2071.07 4674.63,2073.6L4421.8,2137.03C4417.37,2138.16 4413.71,2140.76 4411.22,2144.16C4408.07,2148.52 4406.79,2154.16 4408.2,2159.8C4410.73,2169.84 4420.87,2175.92 4430.94,2173.43" style="fill:rgb(8,6,6);fill-rule:nonzero;"/>
            <g id="text">
                <g>
                    <path d="M2362.56,2235.25L2362.56,1914.8L2402.24,1914.8L2402.24,2055.19C2418.49,2024.57 2442.86,2009.27 2475.35,2009.27C2501.67,2009.27 2522.38,2018.87 2537.49,2038.07C2552.6,2057.27 2560.15,2083.52 2560.15,2116.82C2560.15,2153.08 2551.59,2182.32 2534.47,2204.54C2517.35,2226.76 2494.82,2237.87 2466.89,2237.87C2440.98,2237.87 2419.43,2227.94 2402.24,2208.06L2397.41,2235.25L2362.56,2235.25ZM2402.24,2180.67C2422.65,2198.93 2442.12,2208.06 2460.65,2208.06C2498.78,2208.06 2517.85,2178.99 2517.85,2120.85C2517.85,2069.55 2500.93,2043.91 2467.1,2043.91C2444.94,2043.91 2423.32,2055.93 2402.24,2079.96L2402.24,2180.67Z" style="fill:rgb(30,28,26);fill-rule:nonzero;"/>
                    <path d="M2708.03,2205.04C2684.27,2226.93 2661.37,2237.87 2639.35,2237.87C2621.22,2237.87 2606.18,2232.2 2594.23,2220.85C2582.28,2209.51 2576.31,2195.17 2576.31,2177.85C2576.31,2153.95 2586.35,2135.59 2606.42,2122.76C2626.49,2109.94 2655.26,2103.53 2692.73,2103.53L2702.19,2103.53L2702.19,2077.14C2702.19,2051.76 2689.17,2039.07 2663.12,2039.07C2642.17,2039.07 2619.55,2045.52 2595.24,2058.41L2595.24,2025.58C2621.96,2014.7 2647.01,2009.27 2670.37,2009.27C2694.81,2009.27 2712.83,2014.77 2724.45,2025.78C2736.06,2036.79 2741.87,2053.91 2741.87,2077.14L2741.87,2176.24C2741.87,2198.93 2748.85,2210.28 2762.82,2210.28C2764.57,2210.28 2767.12,2210.01 2770.47,2209.47L2773.29,2231.43C2764.3,2235.72 2754.36,2237.87 2743.48,2237.87C2724.95,2237.87 2713.14,2226.93 2708.03,2205.04ZM2702.19,2183.49L2702.19,2126.89L2688.9,2126.49C2667.15,2126.49 2649.56,2130.62 2636.13,2138.88C2622.7,2147.13 2615.99,2157.98 2615.99,2171.41C2615.99,2180.94 2619.34,2188.99 2626.06,2195.58C2632.77,2202.15 2640.96,2205.44 2650.63,2205.44C2667.15,2205.44 2684.33,2198.13 2702.19,2183.49Z" style="fill:rgb(30,28,26);fill-rule:nonzero;"/>
                    <path d="M2796.1,2232.84L2796.1,2014.1L2835.78,2014.1L2835.78,2055.19C2851.49,2024.57 2874.31,2009.27 2904.26,2009.27C2908.29,2009.27 2912.52,2009.6 2916.95,2010.27L2916.95,2047.33C2910.1,2045.05 2904.06,2043.91 2898.82,2043.91C2873.71,2043.91 2852.7,2058.81 2835.78,2088.62L2835.78,2232.84L2796.1,2232.84Z" style="fill:rgb(30,28,26);fill-rule:nonzero;"/>
                </g>
                <g>
                    <path d="M2414.77,1101.49L2414.77,1077.1L2463.55,1077.1L2463.55,884.619L2414.77,896.814L2414.77,871.765L2496.18,851.495L2496.18,1077.1L2544.96,1077.1L2544.96,1101.49L2414.77,1101.49Z" style="fill:rgb(30,28,26);fill-rule:nonzero;"/>
                    <path d="M2578.18,1102.48L2578.18,1073.47C2594.33,1079.96 2609.71,1083.2 2624.33,1083.2C2640.37,1083.2 2652.97,1078.47 2662.14,1069.03C2671.32,1059.58 2675.91,1046.56 2675.91,1029.97C2675.91,993.384 2650.69,975.091 2600.26,975.091C2594.55,975.091 2588.56,975.476 2582.3,976.245L2582.3,857.593L2705.73,857.593L2705.73,885.937L2610.81,885.937L2610.81,950.207C2642.12,950.207 2666.57,957.403 2684.14,971.796C2701.72,986.188 2710.51,1006.13 2710.51,1031.62C2710.51,1055.35 2702.52,1073.94 2686.53,1087.4C2670.55,1100.86 2648.39,1107.59 2620.04,1107.59C2607.74,1107.59 2593.78,1105.88 2578.18,1102.48Z" style="fill:rgb(30,28,26);fill-rule:nonzero;"/>
                    <path d="M2816.08,1107.59C2790.93,1107.59 2770.57,1095.75 2755.03,1072.07C2739.48,1048.4 2731.71,1017.5 2731.71,979.376C2731.71,940.924 2739.54,909.997 2755.19,886.597C2770.85,863.196 2791.47,851.495 2817.07,851.495C2842.67,851.495 2863.3,863.196 2878.95,886.597C2894.61,909.997 2902.44,940.759 2902.44,978.882C2902.44,1017.99 2894.61,1049.22 2878.95,1072.57C2863.3,1095.91 2842.34,1107.59 2816.08,1107.59ZM2816.41,1083.2C2850.8,1083.2 2867.99,1048.26 2867.99,978.387C2867.99,910.052 2851.02,875.885 2817.07,875.885C2783.24,875.885 2766.32,910.382 2766.32,979.376C2766.32,1048.59 2783.01,1083.2 2816.41,1083.2Z" style="fill:rgb(30,28,26);fill-rule:nonzero;"/>
                </g>
                <g>
                    <path d="M1505.54,1555.43C1508.73,1536.42 1513.26,1520 1519.14,1506.15C1525.02,1492.31 1535.42,1473.3 1550.37,1449.13L1616.94,1342.02L1491.37,1342.02L1491.37,1311.53L1647.92,1311.53L1647.92,1342.02C1585.41,1434.19 1550.42,1505.33 1542.95,1555.43L1505.54,1555.43Z" style="fill:rgb(30,28,26);fill-rule:nonzero;"/>
                    <path d="M1668.96,1556.41L1668.96,1527.41C1685.11,1533.89 1700.49,1537.13 1715.1,1537.13C1731.14,1537.13 1743.75,1532.41 1752.92,1522.96C1762.09,1513.51 1766.68,1500.5 1766.68,1483.91C1766.68,1447.32 1741.47,1429.03 1691.04,1429.03C1685.33,1429.03 1679.34,1429.41 1673.08,1430.18L1673.08,1311.53L1796.51,1311.53L1796.51,1339.88L1701.59,1339.88L1701.59,1404.14C1732.9,1404.14 1757.34,1411.34 1774.92,1425.73C1792.5,1440.12 1801.29,1460.07 1801.29,1485.55C1801.29,1509.28 1793.3,1527.88 1777.31,1541.34C1761.33,1554.8 1739.16,1561.52 1710.82,1561.52C1698.51,1561.52 1684.56,1559.82 1668.96,1556.41Z" style="fill:rgb(30,28,26);fill-rule:nonzero;"/>
                </g>
                <g>
                    <path d="M3386.3,1603.01L3386.3,1574.51C3395.75,1552.42 3414.87,1528.36 3443.65,1502.32L3462.27,1485.68C3486.22,1464.04 3498.2,1442.56 3498.2,1421.25C3498.2,1407.62 3494.1,1396.91 3485.92,1389.11C3477.74,1381.31 3466.5,1377.41 3452.22,1377.41C3435.3,1377.41 3415.36,1383.95 3392.4,1397.02L3392.4,1368.35C3414.04,1358.13 3435.52,1353.02 3456.83,1353.02C3479.68,1353.02 3498.03,1359.17 3511.88,1371.48C3525.72,1383.78 3532.64,1400.1 3532.64,1420.42C3532.64,1435.03 3529.15,1448 3522.17,1459.31C3515.2,1470.63 3502.21,1484.36 3483.2,1500.51L3470.68,1511.22C3444.64,1533.31 3429.59,1554.4 3425.52,1574.51L3531.49,1574.51L3531.49,1603.01L3386.3,1603.01Z" style="fill:rgb(30,28,26);fill-rule:nonzero;"/>
                    <path d="M3559.44,1603.01L3559.44,1574.51C3568.89,1552.42 3588,1528.36 3616.79,1502.32L3635.41,1485.68C3659.36,1464.04 3671.33,1442.56 3671.33,1421.25C3671.33,1407.62 3667.24,1396.91 3659.06,1389.11C3650.87,1381.31 3639.64,1377.41 3625.36,1377.41C3608.44,1377.41 3588.5,1383.95 3565.54,1397.02L3565.54,1368.35C3587.18,1358.13 3608.66,1353.02 3629.97,1353.02C3652.82,1353.02 3671.17,1359.17 3685.01,1371.48C3698.86,1383.78 3705.78,1400.1 3705.78,1420.42C3705.78,1435.03 3702.29,1448 3695.31,1459.31C3688.34,1470.63 3675.34,1484.36 3656.34,1500.51L3643.81,1511.22C3617.78,1533.31 3602.72,1554.4 3598.66,1574.51L3704.62,1574.51L3704.62,1603.01L3559.44,1603.01Z" style="fill:rgb(30,28,26);fill-rule:nonzero;"/>
                    <path d="M3745.6,1604L3745.6,1575C3761.74,1581.48 3777.13,1584.72 3791.74,1584.72C3807.78,1584.72 3820.38,1580 3829.56,1570.55C3838.73,1561.1 3843.32,1548.08 3843.32,1531.49C3843.32,1494.91 3818.11,1476.62 3767.68,1476.62C3761.96,1476.62 3755.98,1477 3749.72,1477.77L3749.72,1359.12L3873.15,1359.12L3873.15,1387.46L3778.22,1387.46L3778.22,1451.73C3809.53,1451.73 3833.98,1458.93 3851.56,1473.32C3869.14,1487.71 3877.93,1507.65 3877.93,1533.14C3877.93,1556.87 3869.93,1575.47 3853.95,1588.92C3837.96,1602.38 3815.8,1609.11 3787.45,1609.11C3775.15,1609.11 3761.2,1607.41 3745.6,1604Z" style="fill:rgb(30,28,26);fill-rule:nonzero;"/>
                    <path d="M3769.55,2442.58L3769.55,2412.25C3792.84,2421.48 3811.19,2426.1 3824.59,2426.1C3840.08,2426.1 3852.69,2421.57 3862.41,2412.5C3872.14,2403.44 3877,2391.71 3877,2377.32C3877,2343.04 3852.99,2325.9 3804.98,2325.9L3792.13,2325.9L3792.13,2303.98L3803.5,2303.82C3848.54,2303.82 3871.06,2287.94 3871.06,2256.19C3871.06,2231.25 3856.23,2218.78 3826.57,2218.78C3810.31,2218.78 3792.4,2223.34 3772.85,2232.46L3772.85,2204.12C3792.07,2197.64 3810.75,2194.39 3828.88,2194.39C3878.76,2194.39 3903.69,2213.24 3903.69,2250.92C3903.69,2279.59 3886.72,2300.03 3852.77,2312.22C3892.1,2321.34 3911.77,2342.88 3911.77,2376.82C3911.77,2399.78 3904.19,2417.8 3889.03,2430.88C3873.87,2443.95 3853.05,2450.49 3826.57,2450.49C3811.52,2450.49 3792.51,2447.85 3769.55,2442.58Z" style="fill:rgb(30,28,26);fill-rule:nonzero;"/>
                    <path d="M4014.21,2450.49C3989.05,2450.49 3968.7,2438.65 3953.15,2414.97C3937.61,2391.3 3929.83,2360.4 3929.83,2322.28C3929.83,2283.82 3937.66,2252.9 3953.32,2229.5C3968.97,2206.1 3989.6,2194.39 4015.2,2194.39C4040.8,2194.39 4061.42,2206.1 4077.08,2229.5C4092.73,2252.9 4100.56,2283.66 4100.56,2321.78C4100.56,2360.89 4092.73,2392.12 4077.08,2415.47C4061.42,2438.81 4040.47,2450.49 4014.21,2450.49ZM4014.54,2426.1C4048.93,2426.1 4066.12,2391.16 4066.12,2321.29C4066.12,2252.95 4049.15,2218.78 4015.2,2218.78C3981.36,2218.78 3964.44,2253.28 3964.44,2322.28C3964.44,2391.49 3981.14,2426.1 4014.54,2426.1Z" style="fill:rgb(30,28,26);fill-rule:nonzero;"/>
                    <path d="M4187.35,2450.49C4162.19,2450.49 4141.84,2438.65 4126.29,2414.97C4110.74,2391.3 4102.97,2360.4 4102.97,2322.28C4102.97,2283.82 4110.8,2252.9 4126.45,2229.5C4142.11,2206.1 4162.74,2194.39 4188.34,2194.39C4213.93,2194.39 4234.56,2206.1 4250.22,2229.5C4265.87,2252.9 4273.7,2283.66 4273.7,2321.78C4273.7,2360.89 4265.87,2392.12 4250.22,2415.47C4234.56,2438.81 4213.6,2450.49 4187.35,2450.49ZM4187.68,2426.1C4222.06,2426.1 4239.26,2391.16 4239.26,2321.29C4239.26,2252.95 4222.28,2218.78 4188.34,2218.78C4154.5,2218.78 4137.58,2253.28 4137.58,2322.28C4137.58,2391.49 4154.28,2426.1 4187.68,2426.1Z" style="fill:rgb(30,28,26);fill-rule:nonzero;"/>
                </g>
                <g>
                    <path d="M3590.34,3524.28L3590.34,3493.95C3613.63,3503.18 3631.98,3507.8 3645.38,3507.8C3660.87,3507.8 3673.48,3503.26 3683.2,3494.2C3692.92,3485.14 3697.78,3473.41 3697.78,3459.02C3697.78,3424.74 3673.78,3407.6 3625.77,3407.6L3612.91,3407.6L3612.91,3385.68L3624.29,3385.52C3669.33,3385.52 3691.85,3369.64 3691.85,3337.89C3691.85,3312.95 3677.02,3300.49 3647.36,3300.49C3631.1,3300.49 3613.19,3305.04 3593.63,3314.16L3593.63,3285.82C3612.86,3279.34 3631.54,3276.1 3649.66,3276.1C3699.54,3276.1 3724.48,3294.94 3724.48,3332.62C3724.48,3361.29 3707.51,3381.73 3673.56,3393.92C3712.89,3403.04 3732.56,3424.58 3732.56,3458.52C3732.56,3481.49 3724.98,3499.5 3709.81,3512.58C3694.65,3525.65 3673.83,3532.19 3647.36,3532.19C3632.31,3532.19 3613.3,3529.55 3590.34,3524.28Z" style="fill:rgb(30,28,26);fill-rule:nonzero;"/>
                    <path d="M3779.95,3526.09C3783.14,3507.08 3787.67,3490.66 3793.55,3476.82C3799.43,3462.97 3809.84,3443.97 3824.78,3419.8L3891.36,3312.68L3765.78,3312.68L3765.78,3282.19L3922.34,3282.19L3922.34,3312.68C3859.83,3404.86 3824.83,3475.99 3817.36,3526.09L3779.95,3526.09Z" style="fill:rgb(30,28,26);fill-rule:nonzero;"/>
                    <path d="M3943.37,3527.08L3943.37,3498.07C3959.52,3504.56 3974.9,3507.8 3989.51,3507.8C4005.55,3507.8 4018.16,3503.07 4027.33,3493.62C4036.51,3484.18 4041.09,3471.16 4041.09,3454.57C4041.09,3417.98 4015.88,3399.69 3965.45,3399.69C3959.74,3399.69 3953.75,3400.08 3947.49,3400.85L3947.49,3282.19L4070.92,3282.19L4070.92,3310.54L3976,3310.54L3976,3374.81C4007.31,3374.81 4031.76,3382 4049.33,3396.4C4066.91,3410.79 4075.7,3430.73 4075.7,3456.22C4075.7,3479.95 4067.71,3498.54 4051.72,3512C4035.74,3525.46 4013.57,3532.19 3985.23,3532.19C3972.92,3532.19 3958.97,3530.48 3943.37,3527.08Z" style="fill:rgb(30,28,26);fill-rule:nonzero;"/>
                    <path d="M2868.73,4202.42L2868.73,4133.37L2758.98,4133.37L2758.98,4108.82L2868.73,3958.53L2899.22,3958.53L2899.22,4106.84L2931.85,4106.84L2931.85,4133.37L2899.22,4133.37L2899.22,4202.42L2868.73,4202.42ZM2790.78,4106.84L2870.87,4106.84L2870.87,3998.41L2790.78,4106.84Z" style="fill:rgb(30,28,26);fill-rule:nonzero;"/>
                    <path d="M2955.85,4203.41L2955.85,4174.41C2971.99,4180.89 2987.38,4184.13 3001.99,4184.13C3018.03,4184.13 3030.63,4179.41 3039.81,4169.96C3048.98,4160.51 3053.57,4147.49 3053.57,4130.9C3053.57,4094.32 3028.36,4076.03 2977.93,4076.03C2972.21,4076.03 2966.23,4076.41 2959.97,4077.18L2959.97,3958.53L3083.4,3958.53L3083.4,3986.87L2988.47,3986.87L2988.47,4051.14C3019.78,4051.14 3044.23,4058.34 3061.81,4072.73C3079.39,4087.12 3088.18,4107.06 3088.18,4132.55C3088.18,4156.28 3080.18,4174.87 3064.2,4188.33C3048.21,4201.79 3026.05,4208.52 2997.7,4208.52C2985.4,4208.52 2971.45,4206.82 2955.85,4203.41Z" style="fill:rgb(30,28,26);fill-rule:nonzero;"/>
                    <path d="M3193.75,4208.52C3168.59,4208.52 3148.24,4196.68 3132.69,4173.01C3117.14,4149.33 3109.37,4118.43 3109.37,4080.31C3109.37,4041.86 3117.2,4010.93 3132.86,3987.53C3148.51,3964.13 3169.14,3952.43 3194.74,3952.43C3220.33,3952.43 3240.96,3964.13 3256.62,3987.53C3272.27,4010.93 3280.1,4041.69 3280.1,4079.82C3280.1,4118.93 3272.27,4150.15 3256.62,4173.5C3240.96,4196.85 3220,4208.52 3193.75,4208.52ZM3194.08,4184.13C3228.46,4184.13 3245.66,4149.19 3245.66,4079.32C3245.66,4010.99 3228.68,3976.82 3194.74,3976.82C3160.9,3976.82 3143.98,4011.32 3143.98,4080.31C3143.98,4149.52 3160.68,4184.13 3194.08,4184.13Z" style="fill:rgb(30,28,26);fill-rule:nonzero;"/>
                </g>
                <g>
                    <path d="M1744.89,3995.53L1744.89,3966.52C1761.05,3973.01 1776.43,3976.25 1791.04,3976.25C1807.08,3976.25 1819.68,3971.52 1828.86,3962.08C1838.03,3952.63 1842.62,3939.61 1842.62,3923.02C1842.62,3886.43 1817.4,3868.14 1766.98,3868.14C1761.26,3868.14 1755.28,3868.53 1749.02,3869.3L1749.02,3750.64L1872.45,3750.64L1872.45,3778.99L1777.52,3778.99L1777.52,3843.26C1808.84,3843.26 1833.28,3850.45 1850.86,3864.85C1868.44,3879.24 1877.23,3899.18 1877.23,3924.67C1877.23,3948.4 1869.23,3966.99 1853.25,3980.45C1837.26,3993.91 1815.1,4000.64 1786.75,4000.64C1774.45,4000.64 1760.5,3998.93 1744.89,3995.53Z" style="fill:rgb(30,28,26);fill-rule:nonzero;"/>
                    <path d="M1905.01,3994.54L1905.01,3966.03C1914.46,3943.95 1933.58,3919.89 1962.36,3893.85L1980.98,3877.2C2004.93,3855.56 2016.91,3834.08 2016.91,3812.77C2016.91,3799.15 2012.82,3788.44 2004.63,3780.64C1996.45,3772.84 1985.21,3768.93 1970.93,3768.93C1954.01,3768.93 1934.07,3775.47 1911.11,3788.55L1911.11,3759.87C1932.75,3749.65 1954.23,3744.55 1975.55,3744.55C1998.4,3744.55 2016.74,3750.7 2030.59,3763C2044.43,3775.31 2051.35,3791.62 2051.35,3811.95C2051.35,3826.56 2047.86,3839.52 2040.89,3850.84C2033.91,3862.15 2020.92,3875.89 2001.91,3892.04L1989.39,3902.75C1963.35,3924.83 1948.3,3945.93 1944.24,3966.03L2050.2,3966.03L2050.2,3994.54L1905.01,3994.54Z" style="fill:rgb(30,28,26);fill-rule:nonzero;"/>
                    <path d="M2091.17,3995.53L2091.17,3966.52C2107.32,3973.01 2122.7,3976.25 2137.31,3976.25C2153.35,3976.25 2165.96,3971.52 2175.13,3962.08C2184.31,3952.63 2188.89,3939.61 2188.89,3923.02C2188.89,3886.43 2163.68,3868.14 2113.25,3868.14C2107.54,3868.14 2101.55,3868.53 2095.29,3869.3L2095.29,3750.64L2218.72,3750.64L2218.72,3778.99L2123.8,3778.99L2123.8,3843.26C2155.11,3843.26 2179.55,3850.45 2197.13,3864.85C2214.71,3879.24 2223.5,3899.18 2223.5,3924.67C2223.5,3948.4 2215.51,3966.99 2199.52,3980.45C2183.54,3993.91 2161.37,4000.64 2133.03,4000.64C2120.72,4000.64 2106.77,3998.93 2091.17,3995.53Z" style="fill:rgb(30,28,26);fill-rule:nonzero;"/>
                </g>
                <g>
                    <path d="M1054.13,3123.62C1069.62,3103.51 1089.12,3093.46 1112.63,3093.46C1133.95,3093.46 1151.39,3100.52 1164.96,3114.64C1178.52,3128.75 1185.31,3146.85 1185.31,3168.93C1185.31,3194.31 1177.7,3215.19 1162.48,3231.56C1147.27,3247.93 1127.96,3256.11 1104.56,3256.11C1077.64,3256.11 1056.6,3245.29 1041.44,3223.65C1026.28,3202 1018.7,3171.96 1018.7,3133.5C1018.7,3091.21 1027.41,3058.36 1044.82,3034.96C1062.23,3011.56 1086.76,2999.86 1118.4,2999.86C1132.9,2999.86 1151.03,3002.93 1172.78,3009.08L1172.78,3037.43C1149.82,3028.64 1131.04,3024.24 1116.42,3024.24C1074.89,3024.24 1054.13,3057.37 1054.13,3123.62ZM1152.68,3176.19C1152.68,3157.73 1148.53,3143.23 1140.24,3132.68C1131.94,3122.13 1120.43,3116.86 1105.71,3116.86C1091.98,3116.86 1080.17,3121.47 1070.28,3130.7C1060.39,3139.93 1055.45,3151.03 1055.45,3163.99C1055.45,3184.43 1060.15,3200.82 1069.54,3213.18C1078.93,3225.54 1091.38,3231.72 1106.87,3231.72C1120.82,3231.72 1131.94,3226.7 1140.24,3216.64C1148.53,3206.59 1152.68,3193.11 1152.68,3176.19Z" style="fill:rgb(30,28,26);fill-rule:nonzero;"/>
                    <path d="M1285.95,3256.11C1260.79,3256.11 1240.44,3244.27 1224.89,3220.6C1209.35,3196.92 1201.58,3166.02 1201.58,3127.9C1201.58,3089.45 1209.4,3058.52 1225.06,3035.12C1240.71,3011.72 1261.34,3000.02 1286.94,3000.02C1312.54,3000.02 1333.16,3011.72 1348.82,3035.12C1364.48,3058.52 1372.3,3089.28 1372.3,3127.41C1372.3,3166.52 1364.48,3197.75 1348.82,3221.09C1333.16,3244.44 1312.21,3256.11 1285.95,3256.11ZM1286.28,3231.72C1320.67,3231.72 1337.86,3196.78 1337.86,3126.91C1337.86,3058.58 1320.89,3024.41 1286.94,3024.41C1253.1,3024.41 1236.18,3058.91 1236.18,3127.9C1236.18,3197.12 1252.88,3231.72 1286.28,3231.72Z" style="fill:rgb(30,28,26);fill-rule:nonzero;"/>
                    <path d="M1469.98,3256.11C1444.82,3256.11 1424.47,3244.27 1408.92,3220.6C1393.38,3196.92 1385.61,3166.02 1385.61,3127.9C1385.61,3089.45 1393.43,3058.52 1409.09,3035.12C1424.74,3011.72 1445.37,3000.02 1470.97,3000.02C1496.57,3000.02 1517.19,3011.72 1532.85,3035.12C1548.51,3058.52 1556.33,3089.28 1556.33,3127.41C1556.33,3166.52 1548.51,3197.75 1532.85,3221.09C1517.19,3244.44 1496.24,3256.11 1469.98,3256.11ZM1470.31,3231.72C1504.7,3231.72 1521.89,3196.78 1521.89,3126.91C1521.89,3058.58 1504.92,3024.41 1470.97,3024.41C1437.13,3024.41 1420.21,3058.91 1420.21,3127.9C1420.21,3197.12 1436.91,3231.72 1470.31,3231.72Z" style="fill:rgb(30,28,26);fill-rule:nonzero;"/>
                    <path d="M2000.03,3201.47L2000.03,3038.87L2044.31,3038.87C2063.94,3038.87 2078.04,3042.18 2086.61,3048.81C2095.18,3055.44 2099.46,3066.33 2099.46,3081.49C2099.46,3098.78 2093.6,3112.33 2081.88,3122.14C2070.16,3131.96 2053.9,3136.87 2033.1,3136.87L2022.89,3136.87L2022.89,3201.47L2000.03,3201.47ZM2022.89,3119.4L2032.22,3119.4C2045.92,3119.4 2056.5,3116.25 2063.97,3109.95C2071.45,3103.65 2075.18,3094.75 2075.18,3083.25C2075.18,3073.51 2072.25,3066.55 2066.39,3062.38C2060.53,3058.2 2050.76,3056.12 2037.06,3056.12L2022.89,3056.12L2022.89,3119.4Z" style="fill:rgb(30,28,26);fill-rule:nonzero;"/>
                    <path d="M2105.47,3201.47L2105.47,3082.15L2127.12,3082.15L2127.12,3104.57C2135.68,3087.87 2148.14,3079.52 2164.47,3079.52C2166.67,3079.52 2168.97,3079.7 2171.39,3080.07L2171.39,3100.28C2167.65,3099.03 2164.36,3098.41 2161.5,3098.41C2147.81,3098.41 2136.34,3106.54 2127.12,3122.8L2127.12,3201.47L2105.47,3201.47Z" style="fill:rgb(30,28,26);fill-rule:nonzero;"/>
                    <path d="M2265.4,3197.62C2250.9,3202.01 2238.49,3204.21 2228.16,3204.21C2210.58,3204.21 2196.24,3198.37 2185.15,3186.69C2174.05,3175.01 2168.5,3159.86 2168.5,3141.26C2168.5,3123.17 2173.39,3108.34 2183.17,3096.76C2192.95,3085.19 2205.45,3079.41 2220.69,3079.41C2235.12,3079.41 2246.27,3084.53 2254.14,3094.79C2262.01,3105.04 2265.95,3119.62 2265.95,3138.51L2265.84,3145.22L2190.59,3145.22C2193.73,3173.56 2207.61,3187.73 2232.22,3187.73C2241.23,3187.73 2252.29,3185.32 2265.4,3180.48L2265.4,3197.62ZM2191.57,3128.95L2244.2,3128.95C2244.2,3106.76 2235.92,3095.67 2219.37,3095.67C2202.74,3095.67 2193.48,3106.76 2191.57,3128.95Z" style="fill:rgb(30,28,26);fill-rule:nonzero;"/>
                    <path d="M2315.36,3204.21C2305.47,3204.21 2293.46,3201.9 2279.32,3197.29L2279.32,3177.41C2293.46,3184.44 2305.76,3187.95 2316.24,3187.95C2322.46,3187.95 2327.63,3186.27 2331.73,3182.9C2335.83,3179.53 2337.88,3175.32 2337.88,3170.26C2337.88,3162.87 2332.13,3156.75 2320.63,3151.92L2308,3146.53C2289.32,3138.77 2279.98,3127.6 2279.98,3113.03C2279.98,3102.62 2283.66,3094.44 2291.02,3088.47C2298.38,3082.5 2308.47,3079.52 2321.29,3079.52C2327.96,3079.52 2336.2,3080.43 2346.01,3082.26L2350.51,3083.14L2350.51,3101.16C2338.43,3097.57 2328.84,3095.78 2321.73,3095.78C2307.81,3095.78 2300.86,3100.83 2300.86,3110.94C2300.86,3117.46 2306.13,3122.95 2316.68,3127.42L2327.11,3131.81C2338.91,3136.79 2347.26,3142.05 2352.16,3147.58C2357.07,3153.11 2359.52,3160.01 2359.52,3168.29C2359.52,3178.76 2355.39,3187.37 2347.11,3194.1C2338.83,3200.84 2328.25,3204.21 2315.36,3204.21Z" style="fill:rgb(30,28,26);fill-rule:nonzero;"/>
                    <path d="M2410.47,3204.21C2400.58,3204.21 2388.57,3201.9 2374.43,3197.29L2374.43,3177.41C2388.57,3184.44 2400.87,3187.95 2411.35,3187.95C2417.57,3187.95 2422.74,3186.27 2426.84,3182.9C2430.94,3179.53 2432.99,3175.32 2432.99,3170.26C2432.99,3162.87 2427.24,3156.75 2415.74,3151.92L2403.11,3146.53C2384.43,3138.77 2375.09,3127.6 2375.09,3113.03C2375.09,3102.62 2378.77,3094.44 2386.13,3088.47C2393.49,3082.5 2403.58,3079.52 2416.4,3079.52C2423.07,3079.52 2431.31,3080.43 2441.12,3082.26L2445.62,3083.14L2445.62,3101.16C2433.54,3097.57 2423.95,3095.78 2416.84,3095.78C2402.93,3095.78 2395.97,3100.83 2395.97,3110.94C2395.97,3117.46 2401.24,3122.95 2411.79,3127.42L2422.22,3131.81C2434.02,3136.79 2442.37,3142.05 2447.27,3147.58C2452.18,3153.11 2454.63,3160.01 2454.63,3168.29C2454.63,3178.76 2450.49,3187.37 2442.22,3194.1C2433.94,3200.84 2423.36,3204.21 2410.47,3204.21Z" style="fill:rgb(30,28,26);fill-rule:nonzero;"/>
                    <path d="M2548.54,3201.47L2548.54,3179.05C2537.04,3195.83 2523.08,3204.21 2506.68,3204.21C2496.28,3204.21 2488,3200.93 2481.85,3194.38C2475.7,3187.82 2472.62,3178.98 2472.62,3167.85L2472.62,3082.15L2494.26,3082.15L2494.26,3160.82C2494.26,3169.75 2495.56,3176.1 2498.16,3179.88C2500.76,3183.65 2505.1,3185.53 2511.18,3185.53C2524.37,3185.53 2536.82,3176.86 2548.54,3159.5L2548.54,3082.15L2570.18,3082.15L2570.18,3201.47L2548.54,3201.47Z" style="fill:rgb(30,28,26);fill-rule:nonzero;"/>
                    <path d="M2593.99,3201.47L2593.99,3082.15L2615.63,3082.15L2615.63,3104.57C2624.2,3087.87 2636.65,3079.52 2652.98,3079.52C2655.18,3079.52 2657.49,3079.7 2659.91,3080.07L2659.91,3100.28C2656.17,3099.03 2652.88,3098.41 2650.02,3098.41C2636.32,3098.41 2624.86,3106.54 2615.63,3122.8L2615.63,3201.47L2593.99,3201.47Z" style="fill:rgb(30,28,26);fill-rule:nonzero;"/>
                    <path d="M2753.92,3197.62C2739.42,3202.01 2727,3204.21 2716.67,3204.21C2699.1,3204.21 2684.76,3198.37 2673.66,3186.69C2662.57,3175.01 2657.02,3159.86 2657.02,3141.26C2657.02,3123.17 2661.91,3108.34 2671.68,3096.76C2681.46,3085.19 2693.97,3079.41 2709.2,3079.41C2723.63,3079.41 2734.78,3084.53 2742.66,3094.79C2750.53,3105.04 2754.47,3119.62 2754.47,3138.51L2754.36,3145.22L2679.1,3145.22C2682.25,3173.56 2696.13,3187.73 2720.74,3187.73C2729.75,3187.73 2740.81,3185.32 2753.92,3180.48L2753.92,3197.62ZM2680.09,3128.95L2732.71,3128.95C2732.71,3106.76 2724.44,3095.67 2707.89,3095.67C2691.26,3095.67 2681.99,3106.76 2680.09,3128.95Z" style="fill:rgb(30,28,26);fill-rule:nonzero;"/>
                    <path d="M2835.21,3241.12L2837.74,3222.34C2850.26,3228.27 2862.6,3231.24 2874.76,3231.24C2899.15,3231.24 2911.34,3218.31 2911.34,3192.46L2911.34,3173.67C2903.36,3190.37 2890.25,3198.72 2872.01,3198.72C2857.73,3198.72 2846.38,3193.52 2837.95,3183.12C2829.53,3172.72 2825.32,3158.69 2825.32,3141.04C2825.32,3122.88 2830.12,3108.08 2839.71,3096.66C2849.31,3085.23 2861.72,3079.52 2876.96,3079.52C2890.29,3079.52 2901.75,3084.94 2911.34,3095.78L2911.34,3082.15L2933.1,3082.15L2933.1,3168.95C2933.1,3187.62 2932.13,3201.45 2930.18,3210.42C2928.24,3219.39 2924.6,3226.73 2919.25,3232.45C2909.8,3242.48 2895.12,3247.5 2875.2,3247.5C2861.28,3247.5 2847.95,3245.37 2835.21,3241.12ZM2911.34,3160.16L2911.34,3110.61C2901.82,3100.72 2891.46,3095.78 2880.25,3095.78C2870.29,3095.78 2862.49,3099.77 2856.85,3107.75C2851.21,3115.74 2848.39,3126.68 2848.39,3140.6C2848.39,3166.75 2857.58,3179.82 2875.97,3179.82C2888.49,3179.82 2900.28,3173.27 2911.34,3160.16Z" style="fill:rgb(30,28,26);fill-rule:nonzero;"/>
                    <path d="M3017,3186.3C3004.04,3198.24 2991.55,3204.21 2979.54,3204.21C2969.65,3204.21 2961.45,3201.12 2954.93,3194.93C2948.41,3188.74 2945.15,3180.92 2945.15,3171.47C2945.15,3158.43 2950.62,3148.42 2961.57,3141.42C2972.52,3134.43 2988.22,3130.93 3008.65,3130.93L3013.81,3130.93L3013.81,3116.54C3013.81,3102.7 3006.71,3095.78 2992.5,3095.78C2981.08,3095.78 2968.73,3099.29 2955.48,3106.32L2955.48,3088.41C2970.05,3082.48 2983.71,3079.52 2996.46,3079.52C3009.79,3079.52 3019.62,3082.52 3025.95,3088.53C3032.29,3094.53 3035.46,3103.87 3035.46,3116.54L3035.46,3170.59C3035.46,3182.97 3039.27,3189.16 3046.88,3189.16C3047.84,3189.16 3049.23,3189.01 3051.06,3188.72L3052.6,3200.7C3047.69,3203.04 3042.27,3204.21 3036.34,3204.21C3026.23,3204.21 3019.78,3198.24 3017,3186.3ZM3013.81,3174.55L3013.81,3143.68L3006.56,3143.46C2994.7,3143.46 2985.1,3145.71 2977.78,3150.21C2970.45,3154.72 2966.79,3160.63 2966.79,3167.96C2966.79,3173.16 2968.62,3177.55 2972.29,3181.14C2975.95,3184.73 2980.42,3186.52 2985.69,3186.52C2994.7,3186.52 3004.07,3182.53 3013.81,3174.55Z" style="fill:rgb(30,28,26);fill-rule:nonzero;"/>
                    <path d="M3134.74,3201.47L3134.74,3179.05C3123.24,3195.83 3109.29,3204.21 3092.89,3204.21C3082.48,3204.21 3074.21,3200.93 3068.06,3194.38C3061.9,3187.82 3058.83,3178.98 3058.83,3167.85L3058.83,3082.15L3080.47,3082.15L3080.47,3160.82C3080.47,3169.75 3081.77,3176.1 3084.37,3179.88C3086.97,3183.65 3091.31,3185.53 3097.39,3185.53C3110.57,3185.53 3123.02,3176.86 3134.74,3159.5L3134.74,3082.15L3156.39,3082.15L3156.39,3201.47L3134.74,3201.47Z" style="fill:rgb(30,28,26);fill-rule:nonzero;"/>
                    <path d="M3180.63,3241.12L3183.16,3222.34C3195.69,3228.27 3208.03,3231.24 3220.18,3231.24C3244.58,3231.24 3256.77,3218.31 3256.77,3192.46L3256.77,3173.67C3248.79,3190.37 3235.68,3198.72 3217.44,3198.72C3203.16,3198.72 3191.8,3193.52 3183.38,3183.12C3174.96,3172.72 3170.75,3158.69 3170.75,3141.04C3170.75,3122.88 3175.54,3108.08 3185.14,3096.66C3194.73,3085.23 3207.15,3079.52 3222.38,3079.52C3235.71,3079.52 3247.18,3084.94 3256.77,3095.78L3256.77,3082.15L3278.52,3082.15L3278.52,3168.95C3278.52,3187.62 3277.55,3201.45 3275.61,3210.42C3273.67,3219.39 3270.03,3226.73 3264.68,3232.45C3255.23,3242.48 3240.55,3247.5 3220.62,3247.5C3206.71,3247.5 3193.38,3245.37 3180.63,3241.12ZM3256.77,3160.16L3256.77,3110.61C3247.25,3100.72 3236.88,3095.78 3225.68,3095.78C3215.72,3095.78 3207.92,3099.77 3202.28,3107.75C3196.64,3115.74 3193.82,3126.68 3193.82,3140.6C3193.82,3166.75 3203.01,3179.82 3221.39,3179.82C3233.92,3179.82 3245.71,3173.27 3256.77,3160.16Z" style="fill:rgb(30,28,26);fill-rule:nonzero;"/>
                    <path d="M3388.36,3197.62C3373.85,3202.01 3361.44,3204.21 3351.11,3204.21C3333.53,3204.21 3319.2,3198.37 3308.1,3186.69C3297,3175.01 3291.45,3159.86 3291.45,3141.26C3291.45,3123.17 3296.34,3108.34 3306.12,3096.76C3315.9,3085.19 3328.41,3079.41 3343.64,3079.41C3358.07,3079.41 3369.22,3084.53 3377.09,3094.79C3384.97,3105.04 3388.9,3119.62 3388.9,3138.51L3388.79,3145.22L3313.54,3145.22C3316.69,3173.56 3330.57,3187.73 3355.18,3187.73C3364.18,3187.73 3375.24,3185.32 3388.36,3180.48L3388.36,3197.62ZM3314.53,3128.95L3367.15,3128.95C3367.15,3106.76 3358.88,3095.67 3342.32,3095.67C3325.7,3095.67 3316.43,3106.76 3314.53,3128.95Z" style="fill:rgb(30,28,26);fill-rule:nonzero;"/>
                </g>
                <path d="M951.163,2522.72C920.973,2522.72 896.55,2510.89 877.896,2487.21C859.241,2463.53 849.913,2432.64 849.913,2394.51C849.913,2356.06 859.307,2325.13 878.093,2301.73C896.88,2278.33 921.632,2266.63 952.35,2266.63C983.068,2266.63 1007.82,2278.33 1026.61,2301.73C1045.39,2325.13 1054.79,2355.9 1054.79,2394.02C1054.79,2433.13 1045.39,2464.36 1026.61,2487.7C1007.82,2511.05 982.672,2522.72 951.163,2522.72ZM951.559,2498.33C992.824,2498.33 1013.46,2463.4 1013.46,2393.52C1013.46,2325.19 993.087,2291.02 952.35,2291.02C911.744,2291.02 891.442,2325.52 891.442,2394.51C891.442,2463.73 911.481,2498.33 951.559,2498.33Z" style="fill:rgb(30,28,26);fill-rule:nonzero;"/>
            </g>
        </g>
        <g id="oil-pressure-gauge-arrow">
            <path d="M2638.01,2328.76C2514.15,2328.76 2407.81,2403.28 2360.99,2509.86C2344.54,2504.33 2328.09,2498.76 2311.62,2493.3C1843.92,2343.81 1707.63,2313.63 1293.72,2319.82L1288.01,2356.74C1396.28,2407.31 1506.64,2444.3 1615.2,2492.9C1745.7,2550.5 2072.54,2599.46 2335.66,2626.85C2335.64,2628.37 2335.43,2629.83 2335.43,2631.36C2335.43,2798.46 2470.91,2933.92 2638.01,2933.92C2805.11,2933.92 2940.59,2798.46 2940.59,2631.36C2940.59,2464.22 2805.11,2328.76 2638.01,2328.76" style="fill:rgb(8,6,6);fill-rule:nonzero;"/>
        </g>
    </g>
</svg>
